<?xml version="1.0" encoding="UTF-8"?>
<!DOCTYPE svg PUBLIC "-//W3C//DTD SVG 1.1//EN" "http://www.w3.org/Graphics/SVG/1.1/DTD/svg11.dtd">
<!-- Creator: CorelDRAW 2021.5 -->
<svg xmlns="http://www.w3.org/2000/svg" xml:space="preserve" width="70.5894mm" height="37.3316mm" version="1.1" style="shape-rendering:geometricPrecision; text-rendering:geometricPrecision; image-rendering:optimizeQuality; fill-rule:evenodd; clip-rule:evenodd"
viewBox="0 0 1331.07 703.94"
 xmlns:xlink="http://www.w3.org/1999/xlink"
 xmlns:xodm="http://www.corel.com/coreldraw/odm/2003">
 <defs>
  <style type="text/css">
   <![CDATA[
    .fil0 {fill:white}
    .fil1 {fill:white;fill-rule:nonzero}
   ]]>
  </style>
 </defs>
 <g id="Layer_x0020_1">
  <metadata id="CorelCorpID_0Corel-Layer"/>
  <path class="fil0" d="M97.02 268.15l-64.37 0c0.02,-65.44 -0.14,-147.08 -0.14,-216.12 0,-6.1 -0.25,-11.2 -0.57,-15.31 -0.32,-4.17 -1.2,-7.49 -2.68,-10.14 -1.41,-2.59 -3.61,-4.64 -6.58,-6.3 -2.97,-1.59 -7.07,-3.05 -12.37,-4.37l0 -12.79 120.72 0c16.33,0 30.18,1.06 41.56,3.18 11.38,2.19 21.35,5.43 29.9,9.81 7.21,3.64 13.29,8.22 18.23,13.72 4.95,5.5 8.76,11.93 11.45,19.22 2.75,7.29 4.1,15.84 4.1,25.52 0,12.66 -2.4,23.59 -7.14,32.61 -4.8,9.08 -11.24,16.64 -19.29,22.67 -8.06,5.96 -18.87,11.66 -32.37,16.97l0 1.92c10.18,4.17 18.66,9.68 25.31,16.64 6.71,6.89 12.79,15.71 18.16,26.31l13.01 26.38c5.8,11.8 11.59,20.61 17.32,26.51 5.72,5.9 12.51,9.48 20.43,10.8l0 12.79 -79.73 0c-8.06,-10.34 -17.1,-25.78 -27.14,-46.19l-16.19 -33.2c-4.81,-9.88 -8.98,-16.83 -12.37,-21.01 -3.46,-4.11 -7.07,-6.96 -10.67,-8.55 -3.68,-1.52 -9.33,-2.32 -16.89,-2.32l-12.02 0 0 62.56c0,4.58 0.11,8.52 0.32,11.8l0 36.91zm-0.32 -241.9l0 107.9 20.5 0c11.03,0 20.14,-1.39 27.35,-4.11 7.14,-2.79 12.86,-6.69 17.04,-11.66 4.24,-4.97 7.14,-10.87 8.69,-17.56 1.63,-6.76 2.4,-14.12 2.4,-22.14 0,-17.63 -4.38,-30.82 -13.22,-39.63 -8.83,-8.82 -21.98,-13.19 -39.37,-13.19 -11.87,0 -19.65,0.13 -23.4,0.4zm399.7 -23.13l0 61.77 -28.41 0c-4.53,-12.33 -8.41,-20.61 -11.59,-24.98 -3.18,-4.31 -7,-7.75 -11.38,-10.27 -4.45,-2.52 -11.95,-3.78 -22.55,-3.78l-45.17 0 0 93.18 27.35 0c6.08,0 10.81,-0.8 14.28,-2.45 3.46,-1.59 6.29,-4.31 8.55,-8.02 2.33,-3.78 4.45,-9.61 6.57,-17.5l23.4 0 0 78.87 -23.4 0c-1.98,-7.56 -4.1,-13.25 -6.43,-17.23 -2.33,-3.91 -5.16,-6.76 -8.41,-8.42 -3.25,-1.72 -8.13,-2.52 -14.56,-2.52l-27.35 0 0 103.65 44.95 0c4.81,0 8.91,-0.27 12.23,-0.86 3.25,-0.6 6.22,-1.59 8.91,-2.98 2.62,-1.46 5.09,-3.38 7.49,-5.83 2.47,-2.45 4.6,-5.1 6.43,-7.95 1.91,-2.85 3.82,-6.63 5.94,-11.27 2.05,-4.7 4.31,-11.07 6.79,-19.22l28.41 0 -3.96 70.85 -203.56 0 0 -12.79c5.16,-1.33 9.19,-2.72 12.16,-4.18 2.97,-1.52 5.16,-3.58 6.57,-6.23 1.48,-2.65 2.4,-6.03 2.83,-10.08 0.42,-4.11 0.64,-9.28 0.64,-15.44l0 -167.41c0,-6.1 -0.21,-11.2 -0.56,-15.31 -0.28,-4.18 -1.2,-7.49 -2.69,-10.14 -1.41,-2.59 -3.61,-4.64 -6.57,-6.3 -2.97,-1.59 -7.07,-3.05 -12.37,-4.37l0 -12.79 205.47 0zm98.1 265.03l0 -12.79c5.8,-0.93 10.39,-2.12 13.78,-3.64 3.39,-1.46 5.94,-3.58 7.56,-6.3 1.7,-2.72 2.69,-6.16 3.11,-10.41 0.42,-4.18 0.64,-9.41 0.64,-15.58l0 -193.59 -16.75 0c-8.34,0 -14.63,0.86 -19.08,2.72 -4.38,1.79 -8.27,4.64 -11.52,8.55 -3.18,3.84 -6.01,9.08 -8.34,15.57 -2.33,6.56 -4.31,12.72 -5.8,18.56l-28.41 0 0 -68.13 243.78 0 0 68.13 -28.41 0c-2.61,-8.81 -4.66,-15.24 -6.22,-19.42 -1.48,-4.11 -3.18,-7.62 -5.02,-10.54 -1.91,-2.92 -3.89,-5.37 -5.94,-7.29 -2.05,-1.92 -4.24,-3.51 -6.64,-4.71 -2.33,-1.13 -5.23,-1.99 -8.76,-2.59 -3.54,-0.6 -8.13,-0.86 -13.78,-0.86l-14.91 0 0 193.59c0,6.83 0.21,12.06 0.64,15.58 0.42,3.58 1.13,6.49 2.26,8.68 1.13,2.19 2.47,3.98 4.03,5.3 1.63,1.39 3.82,2.58 6.65,3.71 2.83,1.13 6.65,1.99 11.52,2.65l0 12.79 -114.36 0zm321.18 0l-108.71 0 0 -12.79c5.16,-1.33 9.19,-2.72 12.16,-4.18 2.97,-1.52 5.16,-3.58 6.57,-6.23 1.48,-2.65 2.4,-6.03 2.83,-10.08 0.42,-4.11 0.64,-9.28 0.64,-15.44l0 -167.41c0,-6.1 -0.21,-11.2 -0.57,-15.31 -0.28,-4.18 -1.2,-7.49 -2.69,-10.14 -1.41,-2.59 -3.61,-4.64 -6.57,-6.3 -2.97,-1.59 -7.07,-3.05 -12.37,-4.37l0 -12.79 120.72 0c16.33,0 30.18,1.06 41.56,3.18 11.38,2.19 21.34,5.43 29.9,9.81 7.21,3.64 13.29,8.22 18.24,13.72 4.95,5.5 8.76,11.93 11.45,19.22 2.76,7.29 4.1,15.84 4.1,25.52 0,12.66 -2.4,23.59 -7.14,32.61 -4.81,9.08 -11.24,16.64 -19.3,22.67 -8.06,5.96 -18.87,11.66 -32.37,16.97l0 1.92c10.18,4.17 18.66,9.68 25.3,16.64 6.71,6.89 12.79,15.71 18.16,26.31l13.01 26.38c5.79,11.8 11.59,20.61 17.32,26.51 5.73,5.9 12.51,9.48 20.43,10.8l0 12.79 -79.73 0c-8.06,-10.34 -17.1,-25.78 -27.14,-46.19l-16.19 -33.2c-4.81,-9.88 -8.98,-16.83 -12.37,-21.01 -3.46,-4.11 -7.07,-6.96 -10.67,-8.55 -3.68,-1.52 -9.33,-2.32 -16.89,-2.32l-12.02 0 0 62.56c0,9.68 0.5,16.5 1.41,20.35 0.99,3.91 2.9,7.03 5.66,9.35 2.75,2.32 7.84,4.37 15.27,6.23l0 12.79zm-22.34 -241.9l0 107.9 20.5 0c11.03,0 20.14,-1.39 27.35,-4.11 7.14,-2.79 12.86,-6.69 17.04,-11.66 4.24,-4.97 7.14,-10.87 8.69,-17.56 1.62,-6.76 2.4,-14.12 2.4,-22.14 0,-17.63 -4.38,-30.82 -13.22,-39.63 -8.83,-8.82 -21.98,-13.19 -39.37,-13.19 -11.88,0 -19.65,0.13 -23.4,0.4zm308.73 245.02c-40.57,0 -71.03,-11.13 -91.39,-33.4 -20.36,-22.27 -30.53,-55.61 -30.53,-100.01 0,-29.1 4.88,-54.01 14.77,-74.63 9.9,-20.68 24.39,-36.38 43.61,-47.12 19.15,-10.74 41.98,-16.11 68.49,-16.11 41.28,0 72.31,11.13 93.02,33.34 20.71,22.14 31.03,55.14 31.03,98.88 0,24.46 -3.04,45.46 -9.19,63.03 -6.15,17.56 -14.91,31.94 -26.22,43.21 -11.31,11.27 -24.88,19.55 -40.64,24.85 -15.83,5.3 -33.43,7.95 -52.94,7.95zm-56.12 -138.65c0,39.1 5.02,68.2 15.06,87.29 9.97,19.09 25.3,28.63 45.87,28.63 10.6,0 19.65,-2.65 27.07,-8.02 7.49,-5.43 13.5,-12.92 18.16,-22.53 4.6,-9.68 7.92,-21.08 9.9,-34.26 2.05,-13.26 3.04,-27.7 3.04,-43.54 0,-25.71 -2.19,-47.32 -6.57,-64.75 -4.31,-17.36 -10.89,-30.55 -19.65,-39.37 -8.76,-8.88 -20,-13.32 -33.64,-13.32 -20,0 -34.92,8.95 -44.6,26.91 -9.75,17.89 -14.63,45.6 -14.63,82.98z"/>
  <path class="fil1" d="M97.11 575.88c0,18.34 -1.2,33.21 -3.46,44.51 -2.26,11.39 -6.08,21.56 -11.45,30.34 -6.36,10.69 -14.84,20.17 -25.52,28.25 -12.51,9.74 -27.99,17.99 -46.36,24.95l-10.32 -31.3c8.41,-4.6 14.63,-8.95 18.73,-12.95 4.03,-4.09 7,-8.52 8.9,-13.13 1.84,-4.7 3.75,-10.47 4.03,-17.56l1.2 -30.69 -0.21 -341.84 64.36 0 0 109.88 0.1 0 0 209.53z"/>
  <path class="fil1" d="M302.01 502.41l-88.42 0 -6.79 18.42c-1.98,5.17 -3.53,10.21 -4.8,15.04 -1.2,4.84 -1.84,10.01 -1.84,15.44 0,12.66 7.14,19.49 21.56,20.41l0 12.79 -88.42 0 0 -12.79c5.09,-0.53 9.54,-2.25 13.43,-5.1 3.89,-2.85 7.35,-6.69 10.53,-11.6 3.18,-4.97 6.58,-12 10.18,-21.21l86.37 -215.73 55.27 0 68.35 217.52c3.04,9.68 5.58,16.57 7.63,20.68 2.05,4.04 4.74,7.36 8.06,9.88 3.32,2.52 7.99,4.37 13.93,5.57l0 12.79 -114.36 0 0 -12.79c7.21,-0.8 12.51,-2.65 15.97,-5.63 3.47,-2.98 5.16,-7.22 5.16,-12.66 0,-3.98 -0.5,-8.48 -1.41,-13.39 -0.99,-4.9 -2.54,-11.13 -4.81,-18.62l-5.58 -19.02zm-80.51 -22.73l74.5 0 -33.08 -109.29 -41.42 109.29z"/>
  <path class="fil1" d="M538.5 482.6l0 53.22c0,6.83 0.21,12.06 0.64,15.58 0.42,3.58 1.2,6.49 2.26,8.68 1.13,2.19 2.47,3.98 4.1,5.3 1.56,1.39 3.74,2.58 6.57,3.71 2.83,1.13 6.71,1.99 11.52,2.65l0 12.79 -114.29 0 0 -12.79c5.65,-0.93 10.18,-2.12 13.57,-3.51 3.32,-1.46 5.87,-3.51 7.56,-6.23 1.63,-2.72 2.69,-6.16 3.18,-10.41 0.49,-4.17 0.71,-9.48 0.71,-15.77l0 -53.22 -56.12 -111.08c-4.81,-9.41 -8.62,-16.44 -11.38,-20.94 -3.18,-5.3 -5.87,-9.15 -8.2,-11.46 -2.26,-2.32 -4.38,-3.98 -6.29,-4.84 -1.91,-0.93 -4.59,-1.59 -8.06,-1.99l0 -12.79 110.33 0 0 12.79c-10.6,1.32 -15.9,6.23 -15.9,14.78 0,3.38 0.85,7.36 2.54,12.06 1.77,4.64 4.52,10.87 8.41,18.62l34.98 72.97 37.89 -71.25c3.74,-7.09 6.36,-13.06 7.77,-17.76 1.48,-4.71 2.19,-9.41 2.19,-14.05 0,-4.71 -1.41,-8.35 -4.24,-11 -2.83,-2.65 -6.79,-4.11 -11.95,-4.37l0 -12.79 83.05 0 0 12.79c-3.74,0.79 -6.78,1.86 -9.19,3.25 -2.4,1.33 -5.09,3.45 -7.99,6.36 -2.9,2.92 -6.36,7.29 -10.32,13.12 -4.03,5.83 -8.69,13.39 -13.92,22.73l-59.44 104.85z"/>
  <path class="fil1" d="M760.73 502.41l-88.42 0 -6.79 18.42c-1.98,5.17 -3.53,10.21 -4.8,15.04 -1.2,4.84 -1.84,10.01 -1.84,15.44 0,12.66 7.14,19.49 21.56,20.41l0 12.79 -88.42 0 0 -12.79c5.09,-0.53 9.54,-2.25 13.43,-5.1 3.89,-2.85 7.35,-6.69 10.53,-11.6 3.18,-4.97 6.58,-12 10.18,-21.21l86.37 -215.73 55.27 0 68.35 217.52c3.04,9.68 5.58,16.57 7.63,20.68 2.05,4.04 4.74,7.36 8.06,9.88 3.32,2.52 7.99,4.37 13.93,5.57l0 12.79 -114.36 0 0 -12.79c7.21,-0.8 12.51,-2.65 15.97,-5.63 3.47,-2.98 5.16,-7.22 5.16,-12.66 0,-3.98 -0.5,-8.48 -1.41,-13.39 -0.99,-4.9 -2.54,-11.13 -4.81,-18.62l-5.58 -19.02zm-80.51 -22.73l74.5 0 -33.08 -109.29 -41.42 109.29z"/>
  <polygon class="fil1" points="172.18,640.74 172.18,645.37 156.69,645.37 156.69,696.54 151.11,696.54 151.11,645.37 135.54,645.37 135.54,640.74 "/>
  <path id="_1" class="fil1" d="M200.84 660.7c1.22,-2.71 3.1,-4.82 5.63,-6.31 2.53,-1.49 5.63,-2.23 9.3,-2.23l0 5.83 -1.52 0c-4.04,0 -7.29,1.09 -9.74,3.27 -2.45,2.18 -3.67,5.83 -3.67,10.93l0 24.35 -5.59 0 0 -43.59 5.59 0 0 7.74z"/>
  <path id="_2" class="fil1" d="M277.8 672.51c0,1.92 -0.05,3.38 -0.16,4.39l-36.16 0c0.16,3.3 0.96,6.12 2.39,8.46 1.44,2.34 3.32,4.11 5.67,5.31 2.34,1.2 4.9,1.8 7.66,1.8 3.62,0 6.67,-0.88 9.14,-2.63 2.48,-1.76 4.11,-4.12 4.91,-7.11l5.91 0c-1.06,4.26 -3.34,7.73 -6.82,10.42 -3.49,2.69 -7.86,4.03 -13.13,4.03 -4.1,0 -7.77,-0.92 -11.02,-2.75 -3.25,-1.83 -5.79,-4.44 -7.62,-7.82 -1.83,-3.38 -2.75,-7.33 -2.75,-11.86 0,-4.52 0.91,-8.49 2.71,-11.89 1.81,-3.41 4.34,-6.01 7.58,-7.82 3.25,-1.81 6.94,-2.71 11.1,-2.71 4.15,0 7.78,0.9 10.9,2.71 3.11,1.81 5.51,4.24 7.18,7.3 1.68,3.06 2.51,6.45 2.51,10.18zm-5.67 -0.16c0.05,-3.25 -0.6,-6.01 -1.96,-8.3 -1.36,-2.29 -3.21,-4.02 -5.55,-5.19 -2.34,-1.17 -4.9,-1.76 -7.66,-1.76 -4.15,0 -7.69,1.33 -10.62,3.99 -2.93,2.66 -4.55,6.41 -4.87,11.26l30.65 0z"/>
  <path id="_3" class="fil1" d="M299.68 674.67c0,-4.47 0.89,-8.39 2.67,-11.77 1.78,-3.38 4.26,-5.99 7.42,-7.82 3.17,-1.84 6.74,-2.75 10.74,-2.75 4.15,0 7.73,0.96 10.74,2.87 3.01,1.91 5.17,4.36 6.51,7.34l0 -9.58 5.59 0 0 43.59 -5.59 0 0 -9.66c-1.38,2.98 -3.58,5.44 -6.59,7.38 -3.01,1.94 -6.58,2.91 -10.74,2.91 -3.94,0 -7.49,-0.93 -10.66,-2.79 -3.17,-1.86 -5.64,-4.5 -7.42,-7.9 -1.78,-3.41 -2.67,-7.34 -2.67,-11.81zm38.08 0.08c0,-3.51 -0.72,-6.6 -2.16,-9.26 -1.44,-2.66 -3.39,-4.71 -5.87,-6.15 -2.47,-1.44 -5.2,-2.16 -8.18,-2.16 -3.09,0 -5.85,0.69 -8.3,2.07 -2.45,1.38 -4.38,3.39 -5.79,6.03 -1.41,2.63 -2.11,5.76 -2.11,9.38 0,3.57 0.71,6.69 2.11,9.38 1.41,2.69 3.34,4.74 5.79,6.15 2.45,1.41 5.21,2.11 8.3,2.11 2.98,0 5.71,-0.72 8.18,-2.16 2.48,-1.44 4.43,-3.48 5.87,-6.15 1.44,-2.66 2.16,-5.75 2.16,-9.26z"/>
  <path id="_4" class="fil1" d="M385.33 697.18c-5,0 -9.09,-1.16 -12.25,-3.47 -3.17,-2.31 -4.93,-5.47 -5.31,-9.46l5.75 0c0.27,2.45 1.42,4.43 3.47,5.95 2.05,1.52 4.8,2.27 8.26,2.27 3.03,0 5.42,-0.72 7.14,-2.16 1.73,-1.44 2.59,-3.22 2.59,-5.35 0,-1.49 -0.48,-2.72 -1.44,-3.67 -0.96,-0.96 -2.17,-1.72 -3.63,-2.27 -1.46,-0.56 -3.45,-1.16 -5.95,-1.8 -3.25,-0.85 -5.88,-1.7 -7.9,-2.55 -2.02,-0.85 -3.74,-2.12 -5.15,-3.79 -1.41,-1.68 -2.12,-3.92 -2.12,-6.74 0,-2.13 0.64,-4.1 1.92,-5.91 1.28,-1.81 3.09,-3.25 5.43,-4.31 2.34,-1.06 5,-1.6 7.98,-1.6 4.68,0 8.46,1.18 11.34,3.55 2.87,2.37 4.42,5.63 4.63,9.78l-5.59 0c-0.16,-2.56 -1.16,-4.62 -2.99,-6.19 -1.84,-1.57 -4.35,-2.36 -7.54,-2.36 -2.82,0 -5.11,0.67 -6.87,2 -1.76,1.33 -2.63,2.98 -2.63,4.95 0,1.7 0.52,3.1 1.56,4.19 1.04,1.09 2.33,1.94 3.87,2.56 1.54,0.61 3.62,1.29 6.23,2.03 3.14,0.85 5.64,1.68 7.5,2.47 1.86,0.8 3.46,1.97 4.79,3.51 1.33,1.54 2.02,3.59 2.08,6.15 0,2.34 -0.64,4.43 -1.92,6.27 -1.28,1.84 -3.06,3.29 -5.35,4.35 -2.29,1.06 -4.92,1.6 -7.9,1.6z"/>
  <path id="_5" class="fil1" d="M463.01 652.95l0 43.59 -5.59 0 0 -7.66c-1.28,2.71 -3.25,4.79 -5.91,6.23 -2.66,1.44 -5.64,2.16 -8.94,2.16 -5.22,0 -9.47,-1.61 -12.77,-4.83 -3.3,-3.22 -4.95,-7.89 -4.95,-14.01l0 -25.46 5.51 0 0 24.83c0,4.74 1.18,8.36 3.55,10.86 2.37,2.5 5.6,3.75 9.7,3.75 4.21,0 7.56,-1.33 10.06,-3.99 2.5,-2.66 3.75,-6.57 3.75,-11.73l0 -23.71 5.59 0z"/>
  <path id="_6" class="fil1" d="M495.58 660.7c1.22,-2.71 3.1,-4.82 5.63,-6.31 2.53,-1.49 5.63,-2.23 9.3,-2.23l0 5.83 -1.52 0c-4.04,0 -7.29,1.09 -9.74,3.27 -2.45,2.18 -3.67,5.83 -3.67,10.93l0 24.35 -5.59 0 0 -43.59 5.59 0 0 7.74z"/>
  <path id="_7" class="fil1" d="M572.54 672.51c0,1.92 -0.05,3.38 -0.16,4.39l-36.16 0c0.16,3.3 0.96,6.12 2.39,8.46 1.44,2.34 3.32,4.11 5.67,5.31 2.34,1.2 4.9,1.8 7.66,1.8 3.62,0 6.67,-0.88 9.14,-2.63 2.48,-1.76 4.11,-4.12 4.91,-7.11l5.91 0c-1.06,4.26 -3.34,7.73 -6.82,10.42 -3.49,2.69 -7.86,4.03 -13.13,4.03 -4.1,0 -7.77,-0.92 -11.02,-2.75 -3.25,-1.83 -5.79,-4.44 -7.62,-7.82 -1.83,-3.38 -2.75,-7.33 -2.75,-11.86 0,-4.52 0.91,-8.49 2.71,-11.89 1.81,-3.41 4.34,-6.01 7.58,-7.82 3.25,-1.81 6.94,-2.71 11.1,-2.71 4.15,0 7.78,0.9 10.9,2.71 3.11,1.81 5.51,4.24 7.18,7.3 1.68,3.06 2.51,6.45 2.51,10.18zm-5.67 -0.16c0.05,-3.25 -0.6,-6.01 -1.96,-8.3 -1.36,-2.29 -3.21,-4.02 -5.55,-5.19 -2.34,-1.17 -4.9,-1.76 -7.66,-1.76 -4.15,0 -7.69,1.33 -10.62,3.99 -2.93,2.66 -4.55,6.41 -4.87,11.26l30.65 0z"/>
  <polygon id="_8" class="fil1" points="655.72,640.74 637.84,674.82 637.84,696.54 632.26,696.54 632.26,674.82 614.21,640.74 620.52,640.74 635.05,669.72 649.5,640.74 "/>
  <path id="_9" class="fil1" d="M697.16 697.18c-4.1,0 -7.78,-0.92 -11.06,-2.75 -3.27,-1.83 -5.85,-4.44 -7.74,-7.82 -1.89,-3.38 -2.83,-7.33 -2.83,-11.86 0,-4.52 0.96,-8.47 2.87,-11.85 1.92,-3.38 4.52,-5.99 7.82,-7.82 3.3,-1.84 7,-2.75 11.1,-2.75 4.1,0 7.81,0.92 11.13,2.75 3.33,1.84 5.93,4.44 7.82,7.82 1.89,3.38 2.83,7.33 2.83,11.85 0,4.47 -0.96,8.41 -2.87,11.81 -1.92,3.41 -4.55,6.03 -7.9,7.86 -3.35,1.84 -7.08,2.75 -11.18,2.75zm0 -4.87c2.87,0 5.53,-0.65 7.98,-1.96 2.45,-1.3 4.43,-3.27 5.95,-5.91 1.52,-2.63 2.28,-5.87 2.28,-9.7 0,-3.83 -0.74,-7.06 -2.23,-9.7 -1.49,-2.63 -3.46,-4.6 -5.91,-5.91 -2.45,-1.3 -5.11,-1.96 -7.98,-1.96 -2.87,0 -5.54,0.65 -7.98,1.96 -2.45,1.3 -4.4,3.27 -5.87,5.91 -1.46,2.63 -2.19,5.87 -2.19,9.7 0,3.83 0.73,7.07 2.19,9.7 1.46,2.63 3.41,4.6 5.83,5.91 2.42,1.3 5.07,1.96 7.94,1.96z"/>
  <path id="_10" class="fil1" d="M781.3 652.95l0 43.59 -5.59 0 0 -7.66c-1.28,2.71 -3.25,4.79 -5.91,6.23 -2.66,1.44 -5.64,2.16 -8.94,2.16 -5.22,0 -9.47,-1.61 -12.77,-4.83 -3.3,-3.22 -4.95,-7.89 -4.95,-14.01l0 -25.46 5.51 0 0 24.83c0,4.74 1.18,8.36 3.55,10.86 2.37,2.5 5.6,3.75 9.7,3.75 4.21,0 7.56,-1.33 10.06,-3.99 2.5,-2.66 3.75,-6.57 3.75,-11.73l0 -23.71 5.59 0z"/>
  <path id="_11" class="fil1" d="M813.87 660.7c1.22,-2.71 3.1,-4.82 5.63,-6.31 2.53,-1.49 5.63,-2.23 9.3,-2.23l0 5.83 -1.52 0c-4.04,0 -7.29,1.09 -9.74,3.27 -2.45,2.18 -3.67,5.83 -3.67,10.93l0 24.35 -5.59 0 0 -43.59 5.59 0 0 7.74z"/>
  <path id="_12" class="fil1" d="M870.72 668.6c0,-5.48 1.2,-10.39 3.59,-14.73 2.39,-4.34 5.67,-7.72 9.82,-10.14 4.15,-2.42 8.78,-3.63 13.89,-3.63 6.23,0 11.56,1.48 16.01,4.43 4.44,2.95 7.68,7.12 9.7,12.49l-6.55 0c-1.6,-3.78 -4.03,-6.73 -7.31,-8.86 -3.27,-2.13 -7.22,-3.19 -11.85,-3.19 -4.1,0 -7.78,0.96 -11.06,2.87 -3.27,1.92 -5.84,4.67 -7.7,8.26 -1.86,3.59 -2.79,7.76 -2.79,12.49 0,4.74 0.93,8.89 2.79,12.45 1.86,3.57 4.43,6.31 7.7,8.22 3.27,1.92 6.96,2.87 11.06,2.87 4.63,0 8.58,-1.05 11.85,-3.15 3.27,-2.1 5.71,-5.02 7.31,-8.74l6.55 0c-2.02,5.32 -5.27,9.45 -9.74,12.37 -4.47,2.93 -9.79,4.39 -15.96,4.39 -5.11,0 -9.74,-1.21 -13.89,-3.63 -4.15,-2.42 -7.42,-5.79 -9.82,-10.1 -2.39,-4.31 -3.59,-9.21 -3.59,-14.69z"/>
  <polygon id="_13" class="fil1" points="954.62,637.47 954.62,696.54 949.03,696.54 949.03,637.47 "/>
  <path id="_14" class="fil1" d="M978.97 674.67c0,-4.47 0.89,-8.39 2.67,-11.77 1.78,-3.38 4.26,-5.99 7.42,-7.82 3.17,-1.84 6.74,-2.75 10.74,-2.75 4.15,0 7.73,0.96 10.74,2.87 3.01,1.91 5.17,4.36 6.51,7.34l0 -9.58 5.59 0 0 43.59 -5.59 0 0 -9.66c-1.38,2.98 -3.58,5.44 -6.59,7.38 -3.01,1.94 -6.58,2.91 -10.74,2.91 -3.94,0 -7.49,-0.93 -10.66,-2.79 -3.17,-1.86 -5.64,-4.5 -7.42,-7.9 -1.78,-3.41 -2.67,-7.34 -2.67,-11.81zm38.08 0.08c0,-3.51 -0.72,-6.6 -2.16,-9.26 -1.44,-2.66 -3.39,-4.71 -5.87,-6.15 -2.47,-1.44 -5.2,-2.16 -8.18,-2.16 -3.09,0 -5.85,0.69 -8.3,2.07 -2.45,1.38 -4.38,3.39 -5.79,6.03 -1.41,2.63 -2.11,5.76 -2.11,9.38 0,3.57 0.71,6.69 2.11,9.38 1.41,2.69 3.34,4.74 5.79,6.15 2.45,1.41 5.21,2.11 8.3,2.11 2.98,0 5.71,-0.72 8.18,-2.16 2.48,-1.44 4.43,-3.48 5.87,-6.15 1.44,-2.66 2.16,-5.75 2.16,-9.26z"/>
  <path id="_15" class="fil1" d="M1064.63 697.18c-5,0 -9.09,-1.16 -12.25,-3.47 -3.17,-2.31 -4.93,-5.47 -5.31,-9.46l5.75 0c0.27,2.45 1.42,4.43 3.47,5.95 2.05,1.52 4.8,2.27 8.26,2.27 3.03,0 5.42,-0.72 7.14,-2.16 1.73,-1.44 2.59,-3.22 2.59,-5.35 0,-1.49 -0.48,-2.72 -1.44,-3.67 -0.96,-0.96 -2.17,-1.72 -3.63,-2.27 -1.46,-0.56 -3.45,-1.16 -5.95,-1.8 -3.25,-0.85 -5.88,-1.7 -7.9,-2.55 -2.02,-0.85 -3.74,-2.12 -5.15,-3.79 -1.41,-1.68 -2.12,-3.92 -2.12,-6.74 0,-2.13 0.64,-4.1 1.92,-5.91 1.28,-1.81 3.09,-3.25 5.43,-4.31 2.34,-1.06 5,-1.6 7.98,-1.6 4.68,0 8.46,1.18 11.34,3.55 2.87,2.37 4.42,5.63 4.63,9.78l-5.59 0c-0.16,-2.56 -1.16,-4.62 -2.99,-6.19 -1.84,-1.57 -4.35,-2.36 -7.54,-2.36 -2.82,0 -5.11,0.67 -6.87,2 -1.76,1.33 -2.63,2.98 -2.63,4.95 0,1.7 0.52,3.1 1.56,4.19 1.04,1.09 2.33,1.94 3.87,2.56 1.54,0.61 3.62,1.29 6.23,2.03 3.14,0.85 5.64,1.68 7.5,2.47 1.86,0.8 3.46,1.97 4.79,3.51 1.33,1.54 2.02,3.59 2.08,6.15 0,2.34 -0.64,4.43 -1.92,6.27 -1.28,1.84 -3.06,3.29 -5.35,4.35 -2.29,1.06 -4.92,1.6 -7.9,1.6z"/>
  <path id="_16" class="fil1" d="M1107.34 644.73c-1.12,0 -2.07,-0.4 -2.87,-1.2 -0.8,-0.8 -1.2,-1.78 -1.2,-2.95 0,-1.17 0.4,-2.14 1.2,-2.92 0.8,-0.77 1.76,-1.16 2.87,-1.16 1.12,0 2.08,0.38 2.87,1.16 0.8,0.77 1.2,1.74 1.2,2.92 0,1.17 -0.4,2.16 -1.2,2.95 -0.8,0.8 -1.76,1.2 -2.87,1.2zm2.79 8.22l0 43.59 -5.59 0 0 -43.59 5.59 0z"/>
  <path id="_17" class="fil1" d="M1134.49 674.75c0,-4.52 0.91,-8.47 2.71,-11.85 1.81,-3.38 4.31,-5.99 7.5,-7.82 3.19,-1.84 6.84,-2.75 10.93,-2.75 5.38,0 9.81,1.33 13.29,3.99 3.48,2.66 5.73,6.28 6.74,10.86l-5.99 0c-0.74,-3.14 -2.36,-5.6 -4.83,-7.38 -2.48,-1.78 -5.55,-2.68 -9.22,-2.68 -2.93,0 -5.56,0.67 -7.9,2 -2.34,1.33 -4.19,3.31 -5.55,5.95 -1.36,2.63 -2.03,5.87 -2.03,9.7 0,3.83 0.68,7.08 2.03,9.74 1.36,2.66 3.21,4.66 5.55,5.99 2.34,1.33 4.98,2 7.9,2 3.67,0 6.74,-0.89 9.22,-2.67 2.47,-1.78 4.08,-4.27 4.83,-7.46l5.99 0c-1.01,4.47 -3.27,8.06 -6.78,10.78 -3.51,2.71 -7.93,4.07 -13.25,4.07 -4.1,0 -7.74,-0.92 -10.93,-2.75 -3.19,-1.83 -5.69,-4.44 -7.5,-7.82 -1.81,-3.38 -2.71,-7.33 -2.71,-11.86z"/>
 </g>
</svg>
